<svg id="Layer_1" data-name="Layer 1" xmlns="http://www.w3.org/2000/svg" viewBox="0 0 96 96"><defs><style>.cls-1{fill:#303ab7;}.cls-2,.cls-4{fill:#ff7373;}.cls-3{fill:#fff;}.cls-4{font-size:11.46px;font-family:AltoneTrial-Bold, Altone Trial;font-weight:700;}.cls-5{fill:#434edd;}</style></defs><rect class="cls-1" x="6.55" y="70.85" width="81.95" height="7.66"/><path class="cls-2" d="M47.53,2.1A38.83,38.83,0,0,0,8.72,41c0,1.15.06,2.3.16,3.42l6.4,2.43a32.83,32.83,0,0,1,.28-13.17c.13-.59.27-.94,1-.93,4.47,0,8.94,0,13.41,0a1.85,1.85,0,0,1,.38.07V49.06H29.17c-2.66,0-5.32,0-8,0l15.23,5.78a4.24,4.24,0,0,1,1-1.9,4.94,4.94,0,0,1,0-4h-.83a79.63,79.63,0,0,1,0-16.19H58.41a79.63,79.63,0,0,1,0,16.19H57.31c.09.21.16.44.23.66a12.82,12.82,0,0,1,.36,3.57,3.93,3.93,0,0,1,1.68,2l26.3-8.38a37.76,37.76,0,0,0,.44-6A38.8,38.8,0,0,0,47.53,2.1ZM31.32,26.66H18.23c1-5.41,12.12-15.41,18.41-16.51A53.29,53.29,0,0,0,31.32,26.66Zm6.11,0c.34-1.49.62-2.92,1-4.32A32.23,32.23,0,0,1,42.7,11.9a14.47,14.47,0,0,1,2.75-3A3,3,0,0,1,49.7,9a10.24,10.24,0,0,1,2,2c3.41,4.64,4.75,10,5.93,15.7Zm21-16.47c5.27.2,17,10.68,18.44,16.45H63.74C62.69,20.93,61.25,15.35,58.41,10.2Zm21.06,38c-.12.53-.24.88-.91.87L64.92,49A.79.79,0,0,1,64.7,49V32.73h5.88c2.57,0,5.15,0,7.73,0,.75,0,1,.22,1.19,1A33,33,0,0,1,79.47,48.2Z"/><path class="cls-3" d="M15.5,47.94c-.08-.38-.15-.75-.22-1.13l5.92,2.25c-1.44,0-2.87,0-4.3,0C16,49.1,15.67,48.79,15.5,47.94Z"/><path class="cls-1" d="M6.61,40.06c3.69,1.14,7.24,2.41,10.88,3.33,5.44,1.36,11,2.42,16.4,3.74,5.24,1.27,9.88,3.63,13.2,8.08a2,2,0,0,0,.45.31c1-1.08,2-2.22,3.07-3.2,3.66-3.29,8.18-4.72,12.84-5.8,6-1.39,11.94-2.7,17.88-4.18,2.37-.59,4.64-1.56,7.14-2.42,0,.64.07,1.19.07,1.74,0,3.61-.05,7.22,0,10.82a1.94,1.94,0,0,1-1.67,2.3c-5.77,1.41-11.52,3-17.3,4.36C61.93,61,55.05,64.27,49.35,69.82c-1,1-2,1.57-3.25.34C38.83,62.85,29.57,59.8,19.79,57.8c-4-.82-7.85-2.07-11.79-3.08a1.75,1.75,0,0,1-1.52-2c.08-3.73,0-7.45,0-11.17C6.5,41,6.58,40.51,6.61,40.06Z"/><text class="cls-4" transform="translate(6.48 91.58)">getmy<tspan class="cls-5" x="35.6" y="0">ebook.in</tspan></text></svg>